<svg width="20" height="20" viewBox="0 0 20 20" fill="none" xmlns="http://www.w3.org/2000/svg">
<g id="instagram">
<path id="Vector" d="M14.1666 1.66667H5.83329C3.53211 1.66667 1.66663 3.53215 1.66663 5.83333V14.1667C1.66663 16.4679 3.53211 18.3333 5.83329 18.3333H14.1666C16.4678 18.3333 18.3333 16.4679 18.3333 14.1667V5.83333C18.3333 3.53215 16.4678 1.66667 14.1666 1.66667Z" stroke="#2DE72B" stroke-linecap="round" stroke-linejoin="round"/>
<path id="Vector_2" d="M13.3334 9.475C13.4362 10.1685 13.3178 10.8768 12.9948 11.4992C12.6719 12.1215 12.161 12.6262 11.5347 12.9414C10.9085 13.2566 10.1987 13.3663 9.50653 13.2549C8.81431 13.1436 8.17484 12.8167 7.67907 12.321C7.1833 11.8252 6.85648 11.1857 6.7451 10.4935C6.63371 9.80129 6.74343 9.09158 7.05865 8.46531C7.37386 7.83904 7.87853 7.32812 8.50086 7.0052C9.12319 6.68228 9.8315 6.56382 10.525 6.66667C11.2325 6.77157 11.8874 7.10122 12.3931 7.60692C12.8988 8.11262 13.2285 8.76756 13.3334 9.475Z" stroke="#2DE72B" stroke-linecap="round" stroke-linejoin="round"/>
<path id="Vector_3" d="M14.5834 5.41667H14.5917" stroke="#2DE72B" stroke-linecap="round" stroke-linejoin="round"/>
</g>
</svg>
